Coordinates
version=1
nRows=12
nColumns=33
inDegrees=yes

Units are S.I. units (second, meters, Newtons, ...)
Angles are in degrees.

endheader
time	ground_thorax_rot_x	ground_thorax_rot_y	ground_thorax_rot_z	ground_thorax_tx	ground_thorax_ty	ground_thorax_tz	clav_prot_r	clav_elev_r	scapula_abduction_r	scapula_elevation_r	scapula_upward_rot_r	scapula_winging_r	shoulder_elv_r	plane_of_elev_r	axial_rot_r	elbow_flexion_r	pro_sup_r	wrist_flex_r	wrist_dev_r	clav_prot_l	clav_elev_l	scapula_abduction_l	scapula_elevation_l	scapula_upward_rot_l	scapula_winging_l	shoulder_elv_l	plane_of_elev_l	axial_rot_l	elbow_flexion_l	pro_sup_l	wrist_flex_l	wrist_dev_l
     10.70000000	    -24.65459424	    -34.30194903	     47.85979401	    -48.13763678	    833.74789971	    -41.08951586	     27.68250078	    -45.00000000	     41.59092124	    -45.00000000	    -45.00000000	   1694.38354128	  -2084.44657911	     20.94079721	   -146.16817657	    358.57058665	    159.33575700	     13.43013314	     15.52450886	     -3.67598197	     38.33952405	    -34.87199362	    -45.00000000	    -22.89524575	   3699.82071618	  -2984.09865549	    142.75838326	    179.99999979	   2160.59490468	     41.79400490	     15.93238525	    -23.71538389
     10.71000000	    -23.89994970	    -34.73267268	     48.95890733	    -45.24872500	    832.24362915	    -40.89720413	     27.91504261	    -45.00000000	     41.92872374	    -45.00000000	    -45.00000000	   1694.24516415	  -2084.67517651	     20.90193940	   -145.92121390	    358.67462384	    159.84390825	     13.22061222	     15.61005730	     -4.18135520	     38.20777957	    -34.54989312	    -45.00000000	    -23.17284131	   3699.37271450	  -2984.10114070	    143.07568462	    179.99999979	   2160.55832030	     41.81962446	     16.04785403	    -23.59545769
     10.72000000	    -23.23670326	    -35.16956809	     49.83171924	    -42.35321534	    830.70587206	    -40.70040252	     27.86702480	    -45.00000000	     42.11186806	    -45.00000000	    -45.00000000	   1694.42109522	  -2084.64105774	     20.72748267	   -145.78390063	    358.58954544	    160.35229240	     13.11293414	     15.56941778	     -4.15090395	     38.24986773	    -34.27913281	    -45.00000000	    -23.30850206	   3699.26007461	  -2984.23207141	    143.17464882	    179.99999979	   2160.50082923	     41.82439462	     16.03858935	    -23.26808294
     10.73000000	    -22.92736649	    -35.32118879	     50.40665512	    -39.46547920	    829.13564656	    -40.49434550	     27.85723277	    -45.00000000	     41.98202305	    -45.00000000	    -45.00000000	   1694.54251822	  -2084.79927430	     20.61262558	   -145.62332637	    358.62968856	    160.89812900	     13.06401475	     15.50656512	     -3.97859088	     38.24505839	    -34.29812448	    -45.00000000	    -23.34268922	   3699.39391529	  -2984.46458505	    142.97781889	    179.99999979	   2160.33400102	     41.79506017	     16.12805987	    -23.05878024
     10.74000000	    -22.37387719	    -35.69390092	     51.15702634	    -36.57663456	    827.52652737	    -40.28137285	     27.85130829	    -45.00000000	     42.11511998	    -45.00000000	    -45.00000000	   1694.62704311	  -2084.87289919	     20.55588324	   -145.48980851	    358.60325853	    161.48739140	     12.97286440	     15.47071632	     -4.00391467	     38.19093008	    -34.04413451	    -45.00000000	    -23.50230983	   3699.30031567	  -2984.58197532	    142.96151695	    179.99999979	   2160.22277760	     41.79272565	     16.17477820	    -22.83897401
     10.75000000	    -22.03232159	    -35.86965044	     51.81327434	    -33.69661745	    825.88318959	    -40.06448052	     27.82365092	    -45.00000000	     41.94562611	    -45.00000000	    -45.00000000	   1694.74352277	  -2084.94589672	     20.42679902	   -145.25942920	    358.61334197	    162.10361427	     12.91218793	     15.35809208	     -3.77282141	     38.19627945	    -34.04715057	    -45.00000000	    -23.66849721	   3699.48269699	  -2984.84954066	    142.72109616	    179.99999979	   2160.09629043	     41.79679506	     16.20291787	    -22.56879071
     10.76000000	    -21.72326842	    -36.05682285	     52.32086716	    -30.81845419	    824.20578151	    -39.85177560	     27.97043172	    -45.00000000	     41.89683315	    -45.00000000	    -45.00000000	   1694.73304481	  -2085.18882070	     20.53019162	   -145.03375637	    358.74188047	    162.83042884	     12.88177366	     15.35651438	     -3.92136153	     38.12449619	    -34.01357715	    -45.00000000	    -23.65323554	   3699.37825124	  -2984.96698819	    142.77936536	    179.99999979	   2159.86593971	     41.81159658	     16.37002888	    -22.58725466
     10.77000000	    -21.20234176	    -36.35890534	     53.07381299	    -27.93428338	    822.48872689	    -39.64244139	     27.90745164	    -45.00000000	     41.90094594	    -45.00000000	    -45.00000000	   1694.84437843	  -2085.22171441	     20.40444647	   -144.84520702	    358.72141445	    163.54679562	     12.77413966	     15.27819487	     -3.82992005	     38.13610902	    -33.84743021	    -45.00000000	    -23.86869405	   3699.40510100	  -2985.16628949	    142.69257767	    179.99999979	   2159.75446402	     41.87094070	     16.34648402	    -22.33236017
     10.78000000	    -20.62206022	    -36.64064364	     53.96094193	    -25.05550273	    820.74148846	    -39.44256902	     27.93725178	    -45.00000000	     41.87607147	    -45.00000000	    -45.00000000	   1694.89345904	  -2085.26544980	     20.25406057	   -144.57139760	    358.75798692	    164.23631870	     12.68707706	     15.14862062	     -3.80425870	     38.05469301	    -33.59209473	    -45.00000000	    -24.11913536	   3699.33150145	  -2985.32928513	    142.61149408	    179.99999979	   2159.66721469	     41.90365198	     16.34364324	    -22.08628226
     10.79000000	    -20.06159409	    -36.91817650	     54.76869911	    -22.17784395	    818.96029514	    -39.24859415	     28.02901828	    -45.00000000	     41.87302278	    -45.00000000	    -45.00000000	   1694.84168412	  -2085.36059787	     20.27293951	   -144.17760817	    358.82599100	    164.94448933	     12.62705757	     15.07738735	     -3.85898492	     37.99895818	    -33.39131549	    -45.00000000	    -24.38511902	   3699.25693652	  -2985.47236916	    142.56756703	    179.99999979	   2159.51213213	     41.92015756	     16.41262279	    -21.93972754
     10.80000000	    -19.55594130	    -37.14678069	     55.53670018	    -19.30746665	    817.14805935	    -39.05765729	     28.11065520	    -45.00000000	     41.86119789	    -45.00000000	    -45.00000000	   1694.85413732	  -2085.45658735	     20.16813941	   -143.86655291	    358.87578917	    165.64857074	     12.55072645	     14.98541979	     -3.88997919	     37.92856971	    -33.17992775	    -45.00000000	    -24.61652714	   3699.16618299	  -2985.63240319	    142.50701245	    179.99999979	   2159.39070546	     41.93137518	     16.43517227	    -21.73745542
     10.81000000	    -19.04807937	    -37.39395885	     56.27446205	    -16.44846325	    815.30441955	    -38.86073455	     28.18699559	    -45.00000000	     41.86616100	    -45.00000000	    -45.00000000	   1694.82348578	  -2085.58786066	     20.15016525	   -143.49973804	    358.94133414	    166.36320436	     12.49578016	     14.92184089	     -3.92303928	     37.86692292	    -32.99349315	    -45.00000000	    -24.86891677	   3699.08864914	  -2985.77294555	    142.46901215	    179.99999979	   2159.21274574	     41.94135029	     16.49761228	    -21.57509166
